HIERARCHY
ROOT hip
{
	OFFSET 0.000000 0.000000 0.000000 
	CHANNELS 6 Xposition Yposition Zposition Xrotation Zrotation Yrotation
	JOINT abdomen
	{
		OFFSET 0.000000 3.402643 0.000000 
		CHANNELS 3 Xrotation Zrotation Yrotation
		JOINT chest
		{
			OFFSET 0.000000 8.438565 -0.680529 
			CHANNELS 3 Xrotation Zrotation Yrotation
			JOINT neck
			{
				OFFSET 0.000000 10.207942 -0.272212 
				CHANNELS 3 Xrotation Zrotation Yrotation
				JOINT head
				{
					OFFSET 0.000000 3.130431 0.000000 
					CHANNELS 3 Xrotation Zrotation Yrotation
					End Site
					{
						OFFSET 0.000000 3.130435 0.000000 
					}
				}
			}
			JOINT lCollar
			{
				OFFSET 3.470700 6.669187 -0.816635 
				CHANNELS 3 Yrotation Zrotation Xrotation
				JOINT lShldr
				{
					OFFSET 3.198488 0.000000 0.000000 
					CHANNELS 3 Zrotation Yrotation Xrotation
					JOINT lForeArm
					{
						OFFSET 10.139888 0.000000 0.000000 
						CHANNELS 3 Yrotation Zrotation Xrotation
						JOINT lHand
						{
							OFFSET 8.370511 0.000000 0.000000 
							CHANNELS 3 Zrotation Yrotation Xrotation
							End Site
							{
								OFFSET 4.083176 0.000000 0.000000 
							}
						}
					}
				}
			}
			JOINT rCollar
			{
				OFFSET -3.470700 6.669187 -0.816635 
				CHANNELS 3 Yrotation Zrotation Xrotation
				JOINT rShldr
				{
					OFFSET -3.198488 0.000000 0.000000 
					CHANNELS 3 Zrotation Yrotation Xrotation
					JOINT rForeArm
					{
						OFFSET -10.139888 0.000000 0.000000 
						CHANNELS 3 Yrotation Zrotation Xrotation
						JOINT rHand
						{
							OFFSET -8.370511 0.000000 0.000000 
							CHANNELS 3 Zrotation Yrotation Xrotation
							End Site
							{
								OFFSET -4.083176 0.000000 0.000000 
							}
						}
					}
				}
			}
		}
	}
	JOINT lThigh
	{
		OFFSET 5.308129 -1.633274 1.361059 
		CHANNELS 3 Xrotation Zrotation Yrotation
		JOINT lShin
		{
			OFFSET -2.041588 -20.007561 0.000000 
			CHANNELS 3 Xrotation Zrotation Yrotation
			JOINT lFoot
			{
				OFFSET 0.000000 -19.190928 -1.224953 
				CHANNELS 3 Xrotation Yrotation Zrotation
				End Site
				{
					OFFSET 0.000000 -2.449906 4.627600 
				}
			}
		}
	}
	JOINT rThigh
	{
		OFFSET -5.308129 -1.633274 1.361059 
		CHANNELS 3 Xrotation Zrotation Yrotation
		JOINT rShin
		{
			OFFSET 2.041588 -20.007561 0.000000 
			CHANNELS 3 Xrotation Zrotation Yrotation
			JOINT rFoot
			{
				OFFSET 0.000000 -19.190928 -1.224953 
				CHANNELS 3 Xrotation Yrotation Zrotation
				End Site
				{
					OFFSET 0.000000 -2.449906 4.627600 
				}
			}
		}
	}
}
MOTION
Frames: 18
Frame Time: 0.033333
0.365890 51.490162 1.374318 2.812500 -0.361328 2.773376 23.094534 -27.374063 19.279123 -23.330080 13.642581 10.146484 51.063168 8.107644 2.471410 -70.351563 -6.269531 -41.494148 2.000000 -2.000000 0.000000 -90.839844 20.742188 -3.687948 -55.327602 -1.649504 -2.169199 21.967754 36.884068 25.757576 -2.000000 2.000000 0.000000 60.166016 10.605469 -11.756016 45.795067 1.762663 -1.761673 -39.313427 -55.008713 39.725418 -19.545706 7.071806 34.035568 4.277223 -5.269930 -0.605087 11.992406 3.204131 1.537763 4.458531 -3.387154 -46.558239 16.869303 4.445333 1.338246 -13.877037 -7.517396 -1.971618 
0.713318 51.340485 2.934688 2.978516 -0.361328 2.080017 21.628000 -27.029791 18.404066 -22.753906 14.316406 10.021947 51.063168 8.107644 2.471410 -69.414063 -5.869140 -39.472656 2.000000 -2.000000 0.000000 -89.570313 19.511721 -2.080078 -55.855499 -1.640891 -2.189258 21.704054 36.389782 25.133411 -2.000000 2.000000 0.000000 61.210941 10.380859 -12.654489 45.968407 1.484993 -2.032369 -38.677494 -55.434082 39.430344 -20.523861 8.617177 33.766434 10.448785 -5.196973 -1.128496 7.744080 3.696853 0.471872 6.773764 -3.505449 -47.195358 15.785105 4.240042 1.384909 -13.700562 -5.722486 -1.759221 
1.054878 51.119900 4.540938 3.164063 -0.361325 1.357373 19.875845 -26.588228 17.803608 -22.167971 15.156250 10.087892 51.063168 8.107644 2.471410 -68.320313 -5.673828 -37.568359 2.000000 -2.000000 0.000000 -88.417969 18.164063 -0.114143 -56.196449 -1.502131 -2.158238 21.722082 35.852875 23.933945 -2.000000 2.000000 0.000000 62.568359 9.277345 -13.173826 46.151279 1.665105 -1.933602 -37.955326 -55.445347 39.411888 -20.825750 9.699330 32.927975 14.680573 -5.150482 -1.488999 4.904497 4.674681 -0.250654 9.128700 -3.818759 -46.607121 14.429415 4.635246 1.334233 -13.819679 -5.542212 -1.606621 
1.496955 50.993847 5.851289 3.339844 -0.351562 0.664063 18.630344 -26.139330 16.759722 -21.757813 16.015627 9.973398 51.063168 8.107644 2.471410 -67.246094 -5.615234 -35.273441 2.000000 -2.000000 0.000000 -87.294922 16.787109 1.809461 -56.548275 -1.502699 -2.167984 21.969795 35.448021 23.190783 -2.000000 2.000000 0.000000 63.564453 7.167968 -11.396484 45.982079 1.961631 -1.818519 -37.111351 -54.532528 37.824306 -20.565300 10.164268 32.503780 18.030479 -5.004705 -1.760208 1.931740 5.027419 -1.219413 10.436652 -4.316764 -46.745827 14.467024 4.579292 1.341019 -12.885355 -4.676335 -1.707281 
1.961237 50.946579 7.020256 3.339844 -0.351562 -0.048828 17.780607 -25.420151 15.546180 -21.347658 16.523438 9.794922 51.063168 8.107644 2.471410 -66.357422 -5.712890 -32.900391 2.000000 -2.000000 0.000000 -86.152344 15.185550 3.417969 -56.559437 -1.632845 -2.219063 21.975317 35.282070 22.942518 -2.000000 2.000000 0.000000 63.994141 5.078125 -8.388672 45.980827 1.792480 -1.769712 -36.722027 -53.568844 36.435417 -20.153099 10.316425 32.040127 20.323891 -4.995174 -1.989006 -0.170214 6.081865 -2.186875 10.013213 -6.200521 -45.225079 18.111012 4.452310 1.630769 -9.818015 -6.535451 -4.104966 
2.526366 50.993847 8.176181 3.496094 -0.361328 -0.566468 17.731989 -24.363161 13.977806 -21.142578 17.031250 9.573174 51.063168 8.107644 2.471410 -65.683594 -5.957031 -29.942423 2.000000 -2.000000 0.000000 -84.951172 13.320313 5.478516 -56.207592 -1.642026 -2.208749 22.015709 35.195038 22.296257 -2.000000 2.000000 0.000000 65.117188 1.914062 -5.693359 47.036877 1.766081 -1.820146 -36.886677 -52.772633 35.675255 -19.302984 10.178565 31.594414 21.749809 -4.952538 -2.081589 -2.043620 6.350017 -3.161192 7.703116 -9.052092 -42.928089 23.921679 4.201959 1.914800 -4.047650 -8.634455 -6.339547 
3.235471 51.033241 9.232994 3.496094 -0.361328 -1.084046 18.870352 -22.283941 11.877746 -21.699219 17.050781 8.876953 51.063168 8.107644 2.471410 -65.097656 -7.060547 -25.878906 2.000000 -2.000000 0.000000 -84.179688 11.611329 7.492201 -55.331509 -1.550211 -2.311890 22.319365 35.641445 21.600662 -2.000000 2.000000 0.000000 67.158203 -1.064453 -3.232604 48.972919 1.722461 -1.910698 -38.025928 -52.218632 36.458118 -18.394184 9.630744 31.231436 22.464390 -4.933294 -2.147478 -3.506366 7.278769 -3.776920 3.893164 -13.620103 -40.155148 32.167740 3.820859 2.615937 6.803985 -9.901987 -6.336038 
4.039616 50.993847 10.168556 3.339844 -0.351562 -1.269531 21.803276 -19.088179 8.812022 -23.007813 16.601564 7.910156 51.063168 8.107644 2.471410 -65.097656 -8.613281 -20.410158 2.000000 -2.000000 0.000000 -83.935547 9.638674 7.814137 -54.624126 -1.697681 -2.156610 22.086073 35.890221 20.829674 -2.000000 2.000000 0.000000 68.427734 -3.232422 -0.440002 51.602615 1.669657 -2.011850 -39.493370 -51.991611 37.737198 -17.382055 8.621752 30.869501 23.331703 -4.894103 -2.212864 -5.187278 7.958220 -3.756902 -2.823507 -17.039047 -36.918339 41.850323 3.392033 2.919919 11.991098 -14.445181 -5.071827 
4.798076 51.033241 11.015377 3.339844 -0.351562 -1.269531 25.714790 -16.298027 5.112979 -24.130859 16.298830 7.216797 51.063168 8.107644 2.471410 -66.718750 -9.951171 -14.493875 2.000000 -2.000000 0.000000 -83.212891 6.611328 7.568505 -54.095978 -1.705726 -2.126805 22.253532 35.923279 20.220577 -2.000000 2.000000 0.000000 69.638680 -5.136719 1.366313 54.582359 1.388640 -2.057531 -41.512619 -51.553860 39.367805 -16.655256 7.892023 30.820799 24.776430 -4.757311 -2.481288 -7.160407 8.347022 -3.818143 -10.918387 -20.281422 -33.146538 53.120773 2.914009 4.042601 17.367573 -20.837643 -0.164983 
5.453683 50.985966 11.743934 2.978516 -0.361328 -0.918030 30.926865 -13.494605 0.512292 -25.048828 15.996095 6.760505 51.063168 8.107644 2.471410 -70.449219 -10.781249 -7.792970 2.000000 -2.000000 0.000000 -81.328117 3.378906 8.272061 -54.624126 -1.697681 -2.156610 22.441046 35.370647 18.812317 -2.000000 2.000000 0.000000 70.664063 -6.464844 2.293824 57.749462 1.307149 -2.169836 -42.066532 -50.764313 39.722473 -16.108765 7.199746 30.420088 25.972601 -4.707847 -2.423681 -8.547966 8.777361 -3.497265 -20.496334 -22.804176 -28.830156 64.313629 2.011607 4.328541 22.701389 -25.720123 7.391798 
6.084298 50.883545 12.412667 2.275391 -0.175781 0.146454 37.090134 -10.185559 -4.761534 -25.976564 15.849611 6.484375 51.063168 8.107644 2.471410 -75.498047 -10.624999 -0.644531 2.000000 -2.000000 0.000000 -78.623047 0.039063 8.496104 -55.680847 -1.760719 -2.231160 23.102077 34.692165 16.790922 -2.000000 2.000000 0.000000 71.289063 -8.242188 1.728516 61.622452 1.368381 -2.381634 -41.928585 -49.457142 39.002831 -15.535798 6.433719 30.182541 27.587454 -4.722896 -2.550700 -10.005209 8.725813 -2.633460 -29.967178 -24.621550 -24.747023 73.943314 1.181613 4.556364 27.120920 -28.004322 13.091022 
6.661878 50.773254 13.147471 1.757813 0.166016 1.406250 42.778709 -6.586543 -9.602823 -26.894533 15.693362 6.230469 51.063168 8.107644 2.471410 -80.585938 -9.707030 6.240234 2.000000 -2.000000 0.000000 -76.132813 -3.535156 6.396484 -55.855480 -1.650640 -2.188689 23.357342 33.818874 16.537605 -2.000000 2.000000 0.000000 72.646484 -11.611328 0.339832 66.011169 1.230077 -2.526554 -41.195843 -47.646656 37.569805 -14.606932 5.533584 29.932344 28.972788 -4.669554 -2.634178 -11.648071 8.356056 -2.180797 -39.684559 -26.050535 -21.747446 82.195679 0.605479 4.782349 27.615984 -27.469093 15.519705 
7.172273 50.662968 14.027503 1.054688 0.322265 2.812564 47.109974 -3.159997 -13.433351 -27.460938 15.361329 6.074218 51.063168 8.107644 2.471410 -84.814453 -8.134766 11.562500 2.000000 -2.000000 0.000000 -73.964844 -7.304688 2.283914 -55.504955 -1.819213 -2.227749 23.987049 33.003418 17.794365 -2.000000 2.000000 0.000000 74.580078 -15.185548 -2.043574 70.233353 1.071133 -2.653113 -40.398037 -45.863800 36.189209 -13.462801 4.916471 29.497356 30.046135 -4.625666 -2.741904 -12.903666 7.912475 -1.666387 -49.274754 -27.096684 -20.865889 88.494270 0.019493 4.769048 24.175575 -26.259901 14.315600 
7.590014 50.607819 15.162923 0.341797 0.507813 4.033283 49.171810 -0.611327 -16.097191 -27.646484 15.185548 6.005860 51.063168 8.107644 2.471410 -87.138672 -7.089843 15.332031 2.000000 -2.000000 0.000000 -72.236328 -10.566406 -0.548664 -54.447601 -1.666729 -2.129079 24.328663 31.819796 19.075188 -2.000000 2.000000 0.000000 77.285156 -19.443359 -4.326172 73.221611 0.817087 -2.658072 -39.373043 -45.158642 34.328354 -11.775006 4.156818 29.269464 30.902050 -4.582266 -2.792621 -14.432307 7.283433 -0.954397 -55.916569 -27.967356 -21.656506 91.599876 -0.791031 4.310898 21.039026 -24.513527 13.145444 
7.905851 50.631458 16.553616 0.000000 0.703125 5.087891 49.039780 0.986828 -17.805450 -27.275391 15.175782 5.940057 51.063168 8.107644 2.471410 -87.373047 -6.474608 17.586788 2.000000 -2.000000 0.000000 -70.898438 -13.408204 -1.945624 -53.384094 -1.404640 -2.163926 24.660465 30.929115 21.063265 -2.000000 2.000000 0.000000 80.058594 -23.017576 -5.687411 74.443420 0.780353 -2.699449 -39.414001 -45.111328 33.614239 -9.869889 3.833310 28.989195 31.633209 -4.460585 -2.967123 -16.207451 5.904969 -0.827424 -58.529510 -28.635777 -24.248962 90.767075 -0.166017 4.735130 18.075481 -24.265818 11.643473 
8.120739 50.757507 18.127258 -0.361328 0.683594 5.595703 47.635502 1.942013 -19.067009 -26.552734 14.980470 5.940025 51.063168 8.107644 2.471410 -86.054688 -6.113281 18.983335 2.000000 -2.000000 0.000000 -70.439453 -15.791015 -3.164062 -52.149323 -1.610594 -2.005232 24.904795 29.831190 22.777105 -2.000000 2.000000 0.000000 82.646484 -25.410156 -6.455078 74.101334 0.809035 -2.687874 -39.628899 -45.579338 33.112221 -7.449748 3.396191 28.207228 30.378233 -4.508435 -2.740064 -16.862352 5.806028 -1.235918 -58.183090 -28.856949 -29.086624 86.745163 0.195228 4.900929 15.097865 -22.864300 8.811467 
8.305030 50.970207 19.836521 0.000000 0.527344 5.595695 45.519039 2.448566 -19.858919 -25.458986 14.941406 6.044922 51.063168 8.107644 2.471410 -83.691406 -5.917968 19.931641 2.000000 -2.000000 0.000000 -70.605469 -17.705078 -3.704140 -51.103294 -1.637565 -1.964265 24.808046 29.320772 24.022572 -2.000000 2.000000 0.000000 84.335938 -27.597656 -6.381475 73.566490 0.999359 -2.765008 -39.046776 -46.339287 32.229134 -5.019567 3.105606 27.544741 28.663395 -4.687027 -2.613134 -17.366732 5.958787 -2.177647 -55.065613 -28.246553 -34.545399 79.564438 0.869151 4.725953 12.100265 -21.194174 5.747523 
8.448869 51.151409 21.577141 0.527344 0.000000 4.921883 43.055294 2.639780 -20.494261 -24.375002 14.736329 6.132813 51.063168 8.107644 2.471410 -80.283203 -5.849609 20.107426 2.000000 -2.000000 0.000000 -71.513672 -18.320311 -4.609375 -50.399349 -1.655356 -1.933888 24.447725 28.755066 24.230690 -2.000000 2.000000 0.000000 84.570313 -29.111328 -3.183594 73.046059 0.856650 -2.665555 -36.788597 -46.939159 31.101259 -2.762032 3.166189 26.715002 26.323883 -4.692554 -2.410565 -17.850771 6.328263 -3.588951 -48.485241 -25.163122 -40.895180 67.469452 1.748036 4.431753 9.854480 -18.707542 2.802101 
